<?xml version="1.0" encoding="UTF-8" standalone="no"?>
<svg
   viewBox="0 0 24 24"
   version="1.1"
   id="svg4"
   sodipodi:docname="2d4ea9ae905831ad3b120e2bfad2192d.svg"
   xmlns:inkscape="http://www.inkscape.org/namespaces/inkscape"
   xmlns:sodipodi="http://sodipodi.sourceforge.net/DTD/sodipodi-0.dtd"
   xmlns="http://www.w3.org/2000/svg"
   xmlns:svg="http://www.w3.org/2000/svg">
  <defs
     id="defs8" />
  <sodipodi:namedview
     id="namedview6"
     pagecolor="#ffffff"
     bordercolor="#666666"
     borderopacity="1.0"
     inkscape:pageshadow="2"
     inkscape:pageopacity="0.0"
     inkscape:pagecheckerboard="0" />
  <path
     d="m20 16a3 3 0 0 0 -1.73.56l-2.45-1.45a3.74 3.74 0 0 0 .18-1.11 4 4 0 0 0 -3-3.86v-2.32a3 3 0 1 0 -2 0v2.32a4 4 0 0 0 -3 3.86 3.74 3.74 0 0 0 .18 1.11l-2.45 1.45a3 3 0 0 0 -1.73-.56 3 3 0 1 0 3 3 3 3 0 0 0 -.12-.8l2.3-1.37a4 4 0 0 0 5.64 0l2.3 1.37a3 3 0 1 0 2.88-2.2zm-16 4a1 1 0 1 1 1-1 1 1 0 0 1 -1 1zm8-16a1 1 0 1 1 -1 1 1 1 0 0 1 1-1zm0 12a2 2 0 1 1 2-2 2 2 0 0 1 -2 2zm8 4a1 1 0 1 1 1-1 1 1 0 0 1 -1 1z"
     id="path2" />
</svg>
