<?xml version="1.0" encoding="UTF-8" standalone="no"?>
<svg
   viewBox="0 0 48 48"
   width="48px"
   height="48px"
   version="1.1"
   id="svg6"
   sodipodi:docname="b793f6f33a74c76c06fbb47838a51da8.svg"
   xmlns:inkscape="http://www.inkscape.org/namespaces/inkscape"
   xmlns:sodipodi="http://sodipodi.sourceforge.net/DTD/sodipodi-0.dtd"
   xmlns="http://www.w3.org/2000/svg"
   xmlns:svg="http://www.w3.org/2000/svg">
  <defs
     id="defs10" />
  <sodipodi:namedview
     id="namedview8"
     pagecolor="#ffffff"
     bordercolor="#666666"
     borderopacity="1.0"
     inkscape:pageshadow="2"
     inkscape:pageopacity="0.0"
     inkscape:pagecheckerboard="0" />
  <path
     fill="#FF3D00"
     d="M43.2,33.9c-0.4,2.1-2.1,3.7-4.2,4c-3.3,0.5-8.8,1.1-15,1.1c-6.1,0-11.6-0.6-15-1.1c-2.1-0.3-3.8-1.9-4.2-4C4.4,31.6,4,28.2,4,24c0-4.2,0.4-7.6,0.8-9.9c0.4-2.1,2.1-3.7,4.2-4C12.3,9.6,17.8,9,24,9c6.2,0,11.6,0.6,15,1.1c2.1,0.3,3.8,1.9,4.2,4c0.4,2.3,0.9,5.7,0.9,9.9C44,28.2,43.6,31.6,43.2,33.9z"
     id="path2" />
  <path
     fill="#FFF"
     d="M20 31L20 17 32 24z"
     id="path4" />
</svg>
